<svg width="349" height="227" viewBox="0 0 349 227" fill="none" xmlns="http://www.w3.org/2000/svg">
<path d="M265.836 75.2594C244.774 3.26648 165.015 -8.48807 143.506 57.6283C95.5606 37.0587 -1.22697 38.528 51.1994 135.499C2.80586 135.499 -11.9815 281.934 143.507 198.186C170.542 222.021 264.491 256.957 277.934 179.086C340.667 242.264 404.295 53.2211 265.836 75.2594Z" fill="#D3DCE1"/>
<path d="M247.832 61.1901C226.77 -10.8029 147.011 -22.5574 125.503 43.559C77.5567 22.9894 -19.2309 24.4587 33.1955 121.429C-15.1981 121.429 -29.9854 267.864 125.503 184.117C152.538 207.952 246.487 242.887 259.93 165.017C322.663 228.195 386.291 39.1517 247.832 61.1901Z" fill="white"/>
</svg>
