<svg width="347" height="222" viewBox="0 0 347 222" fill="none" xmlns="http://www.w3.org/2000/svg">
<path d="M261.98 77.8344C240.458 9.4759 158.957 -1.68524 136.979 61.0934C87.9859 41.5622 -10.9155 42.9573 42.6559 135.032C-6.79463 135.032 -21.905 274.075 136.979 194.556C164.605 217.187 260.606 250.359 274.343 176.42C338.446 236.409 403.463 56.9086 261.98 77.8344Z" fill="#D3DCE1"/>
<path d="M253.244 58.101C231.723 -10.2575 150.222 -21.4186 128.244 41.36C79.2505 21.8288 -19.6509 23.2239 33.9205 115.299C-15.53 115.299 -30.6403 254.342 128.244 174.822C155.869 197.454 251.871 230.626 265.607 156.686C329.71 216.675 394.728 37.1752 253.244 58.101Z" fill="white"/>
</svg>
