<svg width="357" height="230" viewBox="0 0 357 230" fill="none" xmlns="http://www.w3.org/2000/svg">
<path d="M303.4 106.718C282.443 34.3914 203.645 2.68008 182.243 69.1028C182.243 17.9143 79.104 -20.76 79.104 76.5548C-42.2588 76.5548 14.9018 274.691 96.501 183.075C123.402 207.02 185.583 274.253 273.782 183.075C336.205 246.546 407.572 53.322 303.4 106.718Z" fill="#D3DCE1"/>
<path d="M294.168 90.1763C273.21 17.8499 194.412 -13.8614 173.01 52.5613C173.01 1.37281 69.8716 -37.3015 69.8716 60.0133C-51.4913 60.0133 5.66933 258.15 87.2686 166.534C114.17 190.478 176.351 257.711 264.55 166.534C326.972 230.004 398.339 36.7805 294.168 90.1763Z" fill="white"/>
</svg>
