<svg width="346" height="218" viewBox="0 0 346 218" fill="none" xmlns="http://www.w3.org/2000/svg">
<path d="M295.604 106.716C275.632 41.1677 200.54 12.4284 180.145 72.6259C180.145 26.2349 81.8569 -8.81483 81.8569 79.3795C-33.7981 79.3795 20.6742 258.946 98.4357 175.917C124.072 197.617 183.328 258.549 267.379 175.917C326.866 233.439 394.876 58.3241 295.604 106.716Z" fill="#D3DCE1"/>
<path d="M280.333 81.7249C260.361 16.177 185.269 -12.5623 164.873 47.6352C164.873 1.24414 66.5854 -33.8056 66.5855 54.3888C-49.0696 54.3888 5.4027 233.956 83.1642 150.926C108.8 172.627 168.057 233.558 252.108 150.926C311.594 208.448 379.605 33.3334 280.333 81.7249Z" fill="white"/>
</svg>
