<svg width="224" height="403" viewBox="0 0 224 403" fill="none" xmlns="http://www.w3.org/2000/svg">
<g filter="url(#filter0_d_330_12)">
<path d="M150.217 167.012C150.634 165.991 149.84 166.569 148.099 167.836C143.065 171.499 130.114 180.922 115.607 174.145C120.249 181.829 131.333 182.485 139.542 177.258C141.515 176.002 143.599 174.406 145.111 172.486C146.269 171.015 149.464 168.856 150.217 167.012Z" fill="black"/>
<path d="M151.824 177.979C152.568 177.636 151.774 178.173 150.438 178.76C147.247 180.159 140.961 181.838 145.111 172.486C143.599 174.406 141.515 176.002 139.542 177.258C137.609 185.133 145.745 181.344 150.438 178.76C150.946 178.48 151.414 178.214 151.824 177.979Z" fill="black"/>
<path d="M155.571 170.847C150.532 175.225 148.594 170.985 150.217 167.012C149.464 168.856 146.269 171.015 145.111 172.486C147.254 183.765 161.869 165.373 155.571 170.847Z" fill="black"/>
<path d="M57.2417 156.084C54.7562 157.854 51.4111 159.568 49.7852 154.094C50.4151 158.14 52.4546 163.958 57.2417 160.895C56.7177 158.962 57.0104 158.327 57.2417 156.084Z" fill="black"/>
<path d="M81.6368 169.685C82.1996 169.532 81.6086 169.484 80.2969 169.378C74.9548 168.945 57.6586 167.544 57.6586 154.094C57.4556 154.704 57.3149 155.374 57.2417 156.084C57.0104 158.327 56.7177 158.962 57.2417 160.895C57.4923 161.668 57.643 162.357 57.7054 162.959C58.1146 164.848 58.6812 167.102 59.8764 168.23C59.9258 168.268 59.9739 168.31 60.0206 168.358C63.8142 171.52 71.6309 172.415 81.6368 169.685Z" fill="black"/>
<path d="M59.8764 168.23C58.6812 167.102 58.1146 164.848 57.7054 162.959C58.1531 167.277 54.0691 167.173 49.7852 162.221C53.6482 169.081 56.338 168.525 58.1526 168.15C58.8513 168.005 59.4203 167.888 59.8764 168.23Z" fill="black"/>
<path d="M77.4995 196.39C72.6181 196.39 73.3623 207.171 77.4995 205.678C80.3548 204.648 79.269 201.801 78.322 199.317C77.8968 198.202 77.4995 197.161 77.4995 196.39Z" fill="black"/>
<path d="M115.607 201.2C113.507 203.301 109.938 208.1 112.457 210.488C115.607 213.474 122.693 201.2 115.607 201.2Z" fill="black"/>
<path d="M136.25 237.475C127.323 241.247 116.062 243.64 101.907 244.159C94.3106 244.438 87.5816 243.934 81.6368 242.765C83.1971 252.961 86.2035 262.404 55.6115 283.635C47.18 289.487 51.7362 280.495 52.3266 268.873C32.1882 290.521 15.9999 269.6 10.423 256.433C7.89213 263.271 6.00916 272.224 5.22185 283.635C1.33018 340.04 49.9137 330.798 51.0255 331.861C46.5487 322.268 71.1925 317.472 65.3745 317.472C116.591 306.388 139.261 318.134 146.628 328.555C147.904 330.361 148.721 332.126 149.147 333.727C149.097 335.82 149.013 337.809 148.899 339.698C157.527 338.257 180.918 348.217 177.59 362.09C197.018 331.902 196.672 303.696 165.366 288.279C134.061 272.862 137.81 243.287 139.505 235.989C138.456 236.505 137.372 237.001 136.25 237.475Z" fill="#E9FFE9"/>
<path d="M38.605 242.765C31.4401 234.447 18.0158 235.92 10.423 256.433C15.9999 269.6 32.1882 290.521 52.3266 268.873C52.7849 259.852 50.8538 249.246 38.605 242.765Z" fill="#B0BFB0"/>
<path d="M157.178 380.832C165.052 383.486 171.193 375.193 176.389 365.241C176.948 364.171 177.342 363.12 177.59 362.09C180.918 348.217 157.527 338.257 148.899 339.698C147.8 357.797 143.863 366.778 139.505 372.042C143.255 377.482 149.305 378.179 157.178 380.832Z" fill="#B0BFB0"/>
<path d="M54.8242 91.3968C51.0448 89.904 47.2658 82.6059 49.7852 67.678C51.5812 57.0367 59.8632 93.3872 54.8242 91.3968Z" fill="black"/>
<path d="M161.115 109.642C161.39 101.349 164.262 83.966 173.555 80.7814C185.17 76.8006 166.659 114.286 161.115 109.642Z" fill="black"/>
<path d="M124.582 101.68C128.614 85.3593 118.599 26.1563 113.717 1C106.474 25.714 87.0106 99.292 94.8209 109.642C104.521 113.512 124.053 117.338 124.582 101.68Z" fill="#E9FFE9"/>
<path fill-rule="evenodd" clip-rule="evenodd" d="M160.485 212.976C141.274 242.5 126 236.363 126 234.373C140.581 196.116 121.552 190.784 104.348 185.963C101.487 185.162 98.6773 184.374 96.0807 183.452C91.6536 185.072 92.5921 175.529 93.8025 163.222C95.8641 142.259 98.7145 113.276 77.1846 117.769C77.1846 111.845 104.573 113.051 118.586 114.42C124.317 111.267 156.962 98.4104 166.677 153.344C166.583 152.565 166.49 151.796 166.397 151.038C164.816 138.059 163.617 128.208 167.414 125.565C185.05 113.291 190.561 91.7285 182.53 65.8535C180.956 56.3991 149.05 79.0953 148.99 104.895C148.991 104.93 148.991 104.964 148.99 104.998C148.99 104.963 148.99 104.929 148.99 104.895C148.871 101.436 136.741 89.53 124.582 101.68C124.053 117.338 104.521 113.512 94.8209 109.642C92.289 106.287 91.8973 100.663 91.5465 95.6265C91.0649 88.7117 90.6603 82.9036 84.9005 85.5915C71.2538 91.9599 69.8772 87.6495 67.3103 79.6124C65.1974 72.9966 62.2781 63.8558 51.0448 56.0674C39.8647 48.3159 36.558 100.851 44.4312 104.998L51.0448 135.185C38.0163 168.798 28.5346 232.326 81.6368 242.765C87.5816 243.934 94.3106 244.438 101.907 244.159C116.062 243.64 127.323 241.247 136.25 237.475C137.372 237.001 138.456 236.505 139.505 235.989C168.916 221.508 170.239 190.686 167.957 165.168C169.427 196.578 161.805 210.947 160.485 212.976ZM77.4995 205.678C73.3623 207.171 72.6181 196.39 77.4995 196.39C77.4995 197.161 77.8968 198.202 78.322 199.317C79.269 201.801 80.3548 204.648 77.4995 205.678ZM115.607 201.2C113.507 203.301 109.938 208.1 112.457 210.488C115.607 213.474 122.693 201.2 115.607 201.2ZM57.2417 156.084C57.3149 155.374 57.4556 154.704 57.6586 154.094C57.6586 167.544 74.9548 168.945 80.2969 169.378C81.6086 169.484 82.1996 169.532 81.6368 169.685C71.6309 172.415 63.8142 171.52 60.0206 168.358C59.9716 168.318 59.9235 168.275 59.8764 168.23C59.4203 167.888 58.8513 168.005 58.1526 168.15C56.338 168.525 53.6482 169.081 49.7852 162.221C54.0691 167.173 58.1531 167.277 57.7054 162.959C57.6638 162.767 57.6237 162.578 57.5849 162.395C57.4645 161.828 57.355 161.313 57.2417 160.895C52.4546 163.958 50.4151 158.14 49.7852 154.094C51.4111 159.568 54.7562 157.854 57.2417 156.084ZM161.115 109.642C161.39 101.349 164.262 83.966 173.555 80.7814C185.17 76.8006 166.659 114.286 161.115 109.642ZM54.8242 91.3968C51.0448 89.904 47.2658 82.6059 49.7852 67.678C51.5812 57.0367 59.8632 93.3872 54.8242 91.3968Z" fill="#E9FFE9"/>
<path fill-rule="evenodd" clip-rule="evenodd" d="M51.0448 331.902C48.6304 344.066 49.5648 363.905 67.7366 378.344C73.7203 383.099 63.4849 387.965 94.6635 393.77C105.424 395.207 131.511 389.789 128.834 380.832C131.667 378.358 135.743 376.586 139.505 372.042C143.863 366.778 147.8 357.797 148.899 339.698C149.013 337.809 149.097 335.82 149.147 333.727C148.721 332.126 147.904 330.361 146.628 328.555C139.261 318.134 116.591 306.388 65.3745 317.472C71.1925 317.472 46.5487 322.268 51.0255 331.861C51.0383 331.873 51.0448 331.887 51.0448 331.902ZM59.2332 325.267C59.6531 322.503 71.0118 316.808 106.159 316.808C133.69 316.808 152.409 333.9 139.384 343.789C134.083 347.813 123.523 350.645 106.158 350.645C76.8684 350.645 62.6833 345.749 57.1981 340.029C52.1261 334.741 54.4924 328.747 59.2332 325.267Z" fill="#9F1919"/>
<path d="M106.159 316.808C71.0118 316.808 59.6531 322.503 59.2332 325.267C54.4924 328.747 52.1261 334.741 57.1981 340.029C76.4051 328.492 119.732 313.092 139.384 343.789C152.409 333.9 133.69 316.808 106.159 316.808Z" fill="#1E1E1E"/>
<path fill-rule="evenodd" clip-rule="evenodd" d="M126 234.373C126 236.363 141.274 242.5 160.485 212.976C161.805 210.947 169.427 196.578 167.957 165.168C167.59 161.059 167.129 157.088 166.677 153.344C156.962 98.4104 124.317 111.267 118.586 114.42L118.913 114.452C117.367 115.308 117.404 115.07 118.586 114.42C104.573 113.051 77.1846 111.845 77.1846 117.769C98.7145 113.276 95.8641 142.259 93.8025 163.222C92.5921 175.529 91.6536 185.072 96.0807 183.452C98.6773 184.374 101.487 185.162 104.348 185.963C121.552 190.784 140.581 196.116 126 234.373ZM150.217 167.012C148.594 170.985 150.532 175.225 155.571 170.847C161.869 165.373 147.254 183.765 145.111 172.486C140.961 181.838 147.247 180.159 150.438 178.76C150.946 178.48 151.414 178.214 151.824 177.979C152.568 177.636 151.774 178.173 150.438 178.76C145.745 181.344 137.609 185.133 139.542 177.258C131.333 182.485 120.249 181.829 115.607 174.145C130.114 180.922 143.065 171.499 148.099 167.836C149.84 166.569 150.634 165.991 150.217 167.012Z" fill="#F4ECA7"/>
<path d="M57.1981 340.029C62.6833 345.749 76.8684 350.645 106.158 350.645C123.523 350.645 134.083 347.813 139.384 343.789C119.732 313.092 76.4051 328.492 57.1981 340.029Z" fill="#F4ECA7"/>
<path d="M57.1981 340.029C52.1261 334.741 54.4924 328.747 59.2332 325.267C59.6531 322.503 71.0118 316.808 106.159 316.808C133.69 316.808 152.409 333.9 139.384 343.789M57.1981 340.029C62.6833 345.749 76.8684 350.645 106.158 350.645C123.523 350.645 134.083 347.813 139.384 343.789M57.1981 340.029C76.4051 328.492 119.732 313.092 139.384 343.789M118.913 114.452C118.805 114.441 118.696 114.431 118.586 114.42M118.913 114.452C117.367 115.308 117.404 115.07 118.586 114.42M118.913 114.452L118.586 114.42M118.586 114.42C104.573 113.051 77.1846 111.845 77.1846 117.769C98.7145 113.276 95.8641 142.259 93.8025 163.222C92.5921 175.529 91.6536 185.072 96.0807 183.452C98.6773 184.374 101.487 185.162 104.348 185.963C121.552 190.784 140.581 196.116 126 234.373C126 236.363 141.274 242.5 160.485 212.976C161.805 210.947 169.427 196.578 167.957 165.168M118.586 114.42C124.317 111.267 156.962 98.4104 166.677 153.344M150.217 167.012C148.594 170.985 150.532 175.225 155.571 170.847C161.869 165.373 147.254 183.765 145.111 172.486M150.217 167.012C149.464 168.856 146.269 171.015 145.111 172.486M150.217 167.012C150.634 165.991 149.84 166.569 148.099 167.836C143.065 171.499 130.114 180.922 115.607 174.145C120.249 181.829 131.333 182.485 139.542 177.258M145.111 172.486C143.599 174.406 141.515 176.002 139.542 177.258M145.111 172.486C140.961 181.838 147.247 180.159 150.438 178.76M139.542 177.258C137.609 185.133 145.745 181.344 150.438 178.76M124.582 101.68C128.614 85.3593 118.599 26.1563 113.717 1C106.474 25.714 87.0106 99.292 94.8209 109.642M124.582 101.68C124.053 117.338 104.521 113.512 94.8209 109.642M124.582 101.68C136.741 89.53 148.871 101.436 148.99 104.895M94.8209 109.642C92.289 106.287 91.8973 100.663 91.5465 95.6265C91.0649 88.7117 90.6603 82.9036 84.9005 85.5915C71.2538 91.9599 69.8772 87.6495 67.3103 79.6124C65.1974 72.9966 62.2781 63.8558 51.0448 56.0674C39.8647 48.3159 36.558 100.851 44.4312 104.998L51.0448 135.185C38.0163 168.798 28.5346 232.326 81.6368 242.765M81.6368 242.765C87.5816 243.934 94.3106 244.438 101.907 244.159C116.062 243.64 127.323 241.247 136.25 237.475M81.6368 242.765C83.1971 252.961 86.2035 262.404 55.6115 283.635C47.18 289.487 51.7362 280.495 52.3266 268.873M51.0448 331.902C48.6304 344.066 49.5648 363.905 67.7366 378.344C73.7203 383.099 63.4849 387.965 94.6635 393.77C105.424 395.207 131.511 389.789 128.834 380.832C131.667 378.358 135.743 376.586 139.505 372.042M51.0448 331.902C51.0383 331.888 51.0319 331.875 51.0255 331.861M51.0448 331.902C51.0448 331.887 51.0383 331.873 51.0255 331.861M65.3745 317.472L72.618 294.085M65.3745 317.472C116.591 306.388 139.261 318.134 146.628 328.555M65.3745 317.472C71.1925 317.472 46.5487 322.268 51.0255 331.861M146.628 328.555C147.904 330.361 148.721 332.126 149.147 333.727C149.097 335.82 149.013 337.809 148.899 339.698M146.628 328.555C146.169 327.147 146.418 324.525 149.147 321.914M157.178 317.472C153.34 318.769 150.793 320.34 149.147 321.914M143.793 300.056C144.108 306.003 145.62 318.7 149.147 321.914M148.899 339.698C147.8 357.797 143.863 366.778 139.505 372.042M148.899 339.698C157.527 338.257 180.918 348.217 177.59 362.09M139.505 372.042C143.255 377.482 149.305 378.179 157.178 380.832C165.052 383.486 171.193 375.193 176.389 365.241C176.948 364.171 177.342 363.12 177.59 362.09M177.59 362.09C197.017 331.902 196.672 303.696 165.366 288.279C134.061 272.862 137.81 243.287 139.505 235.989M139.505 235.989C138.456 236.505 137.372 237.001 136.25 237.475M139.505 235.989C168.916 221.508 170.239 190.686 167.957 165.168M10.423 256.433C18.0158 235.92 31.4401 234.447 38.605 242.765C50.8538 249.246 52.7849 259.852 52.3266 268.873M10.423 256.433C7.89213 263.271 6.00916 272.224 5.22185 283.635C1.33018 340.04 49.9137 330.798 51.0255 331.861M10.423 256.433C15.9999 269.6 32.1882 290.521 52.3266 268.873M65.3745 223.26C75.7271 229.729 100.74 239.449 117.969 226.577M57.2417 156.084C57.3149 155.374 57.4556 154.704 57.6586 154.094C57.6586 167.544 74.9548 168.945 80.2969 169.378C81.6086 169.484 82.1996 169.532 81.6368 169.685C71.6309 172.415 63.8142 171.52 60.0206 168.358M57.2417 156.084C54.7562 157.854 51.4111 159.568 49.7852 154.094C50.4151 158.14 52.4546 163.958 57.2417 160.895M57.2417 156.084C57.0104 158.327 56.7177 158.962 57.2417 160.895M57.2417 160.895C57.4923 161.668 57.643 162.357 57.7054 162.959M57.2417 160.895C57.355 161.313 57.4645 161.828 57.5849 162.395C57.6237 162.578 57.6638 162.767 57.7054 162.959M60.0206 168.358C59.9739 168.31 59.9258 168.268 59.8764 168.23M60.0206 168.358C59.9716 168.318 59.9235 168.275 59.8764 168.23M57.7054 162.959C58.1146 164.848 58.6812 167.102 59.8764 168.23M57.7054 162.959C58.1531 167.277 54.0691 167.173 49.7852 162.221C53.6482 169.081 56.338 168.525 58.1526 168.15C58.8513 168.005 59.4203 167.888 59.8764 168.23M148.99 104.895C149.05 79.0953 180.956 56.3991 182.53 65.8535C190.561 91.7285 185.05 113.291 167.414 125.565C163.617 128.208 164.816 138.059 166.397 151.038C166.49 151.796 166.583 152.565 166.677 153.344M148.99 104.895C148.991 104.93 148.991 104.964 148.99 104.998C148.99 104.963 148.99 104.929 148.99 104.895ZM150.438 178.76C150.946 178.48 151.414 178.214 151.824 177.979C152.568 177.636 151.774 178.173 150.438 178.76ZM136.25 237.475C168.817 223.713 170.32 191.596 167.957 165.168M166.677 153.344C167.001 155.176 167.3 157.084 167.571 159.07C167.738 161.17 167.865 163.202 167.957 165.168M166.677 153.344C167.129 157.088 167.59 161.059 167.957 165.168M77.4995 196.39C72.6181 196.39 73.3623 207.171 77.4995 205.678C80.3548 204.648 79.269 201.801 78.322 199.317C77.8968 198.202 77.4995 197.161 77.4995 196.39ZM115.607 201.2C113.507 203.301 109.938 208.1 112.457 210.488C115.607 213.474 122.693 201.2 115.607 201.2ZM161.115 109.642C161.39 101.349 164.262 83.966 173.555 80.7814C185.17 76.8006 166.659 114.286 161.115 109.642ZM54.8242 91.3968C51.0448 89.904 47.2658 82.6059 49.7852 67.678C51.5812 57.0367 59.8632 93.3872 54.8242 91.3968Z" stroke="black" stroke-opacity="0.2"/>
<path d="M219.227 201.997C173.524 230.533 230.771 134.639 182.222 108.924C171.468 131.985 167.04 113.569 164.51 138.621C162.81 155.451 164.415 169.431 167.679 180.607C167.817 180.709 166.884 177.408 167.084 178.466C171.62 192.808 181.724 205.083 187.946 209.775C187.94 207.707 186.744 208.733 187.757 211.952C210.782 240.886 223.022 211.952 219.227 201.997Z" fill="#1A535C"/>
<path d="M198.307 254.609C215.997 247.548 221.174 228.976 215.748 237.667C196.368 268.707 187.972 219.006 187.946 209.775C181.724 205.083 171.62 192.808 167.084 178.466C168.591 186.434 168.065 219.878 137.321 234.857C146.207 233.662 178.463 241.17 198.307 254.609Z" fill="#4ECDC4"/>
<path d="M167.514 289.928C176.054 294.905 194.398 312.657 190.919 332.565C230.043 293.935 219.784 269.153 198.307 254.609C185.608 259.678 163.624 256.004 137.321 234.857C128.465 270.527 158.975 284.95 167.514 289.928Z" fill="#1A535C"/>
<path d="M137.321 234.857C146.207 233.662 178.463 241.17 198.307 254.609C185.608 259.678 163.624 256.004 137.321 234.857Z" fill="#1A535C"/>
<path d="M124.025 62.4704C135.675 61.7514 162.692 71.927 158.975 80.5541C153.756 92.6653 145.533 103.449 149.012 108.924C144.689 105.606 124.025 111.639 124.025 100.795C124.025 97.6424 124.025 70.5998 124.025 62.4704Z" fill="#1A535C"/>
<path d="M92.5549 103.947C89.9719 113.127 76.2066 120.469 48.5916 152.226C32.1449 171.139 63.7732 204.32 14.2747 204.32C5.26062 204.32 1.4015 190.483 19.4934 187.563C5.26062 201.168 36.2564 196.09 28.5075 181.259C16.1197 167.987 0.801953 126.845 42.2659 100.795C70.2571 83.2086 84.0154 62.4704 98.2482 62.4704C98.2482 70.0357 94.4527 93.2736 92.5549 103.947Z" fill="#4ECDC4"/>
<path d="M25.661 203.49C19.757 210.403 6.01903 245.369 21.5493 240.156C41.3171 233.519 55.8663 262.387 50.173 286.443C72.9456 279.475 92.0806 245.465 82.2758 242.312C68.7351 237.959 44.7962 232.026 40.6845 195.029L25.661 203.49Z" fill="#1A535C"/>
<path d="M50.6901 216.5C48.3924 218.746 36.9677 234.504 31.5426 242.102C32.5 243.038 34.9572 244.679 37.1273 243.754C39.4337 242.771 55.0066 221.725 58.6371 217.172C56.7443 218.094 53.2214 214.025 50.6901 216.5Z" fill="#9F1919"/>
<path d="M55.1578 196.349C48.1371 197.934 49.254 210.444 50.6901 216.5C53.2214 214.025 56.7443 218.094 58.6371 217.172C59.2763 216.37 59.5453 216.08 59.3064 216.5C63.455 218.978 68.0823 211.38 67.4441 209.398C67.2876 208.912 66.9968 207.76 66.5177 206.329C65.0937 202.073 62.0057 195.339 55.8337 196.224C55.6124 196.255 55.3871 196.297 55.1578 196.349Z" fill="#F4ECA7"/>
<path d="M50.6901 216.5C48.3924 218.746 36.9677 234.504 31.5426 242.102C32.5 243.038 34.9572 244.679 37.1273 243.754C39.4337 242.771 55.0066 221.725 58.6371 217.172M50.6901 216.5C49.254 210.444 48.1371 197.934 55.1578 196.349C55.3871 196.297 55.6124 196.255 55.8337 196.224M50.6901 216.5C53.2214 214.025 56.7443 218.094 58.6371 217.172M59.3064 216.5C63.455 218.978 68.0823 211.38 67.4441 209.398C67.2876 208.912 66.9968 207.76 66.5177 206.329M59.3064 216.5C59.5453 216.08 59.2763 216.37 58.6371 217.172M59.3064 216.5C59.1171 216.833 58.8919 217.048 58.6371 217.172M66.3272 205.268C66.4024 205.592 66.4682 205.949 66.5177 206.329M60.902 213.527C66.2483 213.998 66.9234 209.432 66.5177 206.329M55.7961 196.184C55.8086 196.197 55.8211 196.21 55.8337 196.224M54.9982 209.232C61.0919 204.633 58.1161 198.672 55.8337 196.224M62.4977 199.157C63.4019 201.855 63.838 207.878 58.349 210.389M66.5177 206.329C65.0937 202.073 62.0057 195.339 55.8337 196.224" stroke="black" stroke-opacity="0.2"/>
</g>
<defs>
<filter id="filter0_d_330_12" x="0.5" y="0.859375" width="223.409" height="401.641" filterUnits="userSpaceOnUse" color-interpolation-filters="sRGB">
<feFlood flood-opacity="0" result="BackgroundImageFix"/>
<feColorMatrix in="SourceAlpha" type="matrix" values="0 0 0 0 0 0 0 0 0 0 0 0 0 0 0 0 0 0 127 0" result="hardAlpha"/>
<feOffset dy="4"/>
<feGaussianBlur stdDeviation="2"/>
<feComposite in2="hardAlpha" operator="out"/>
<feColorMatrix type="matrix" values="0 0 0 0 0 0 0 0 0 0 0 0 0 0 0 0 0 0 0.25 0"/>
<feBlend mode="normal" in2="BackgroundImageFix" result="effect1_dropShadow_330_12"/>
<feBlend mode="normal" in="SourceGraphic" in2="effect1_dropShadow_330_12" result="shape"/>
</filter>
</defs>
</svg>
