<svg width="1187" height="642" viewBox="0 0 1187 642" fill="none" xmlns="http://www.w3.org/2000/svg">
<rect y="39.0469" width="1186.76" height="602.953" rx="40" fill="white" fill-opacity="0.7"/>
<rect y="39.0469" width="1186.76" height="124.405" rx="20" fill="#1A535C"/>
<path d="M436.466 83.9652V75.0909H478.277V83.9652H462.691V126H452.052V83.9652H436.466ZM484.964 126V87.8182H495.554V126H484.964ZM490.284 82.8963C488.709 82.8963 487.359 82.3743 486.232 81.3303C485.122 80.2696 484.566 79.0019 484.566 77.527C484.566 76.0687 485.122 74.8175 486.232 73.7734C487.359 72.7128 488.709 72.1825 490.284 72.1825C491.858 72.1825 493.2 72.7128 494.311 73.7734C495.438 74.8175 496.001 76.0687 496.001 77.527C496.001 79.0019 495.438 80.2696 494.311 81.3303C493.2 82.3743 491.858 82.8963 490.284 82.8963ZM504.036 126V87.8182H514.129V94.5547H514.576C515.372 92.3175 516.697 90.5526 518.553 89.2599C520.41 87.9673 522.63 87.321 525.215 87.321C527.834 87.321 530.063 87.9756 531.902 89.2848C533.742 90.5774 534.968 92.334 535.581 94.5547H535.979C536.758 92.3672 538.166 90.6188 540.205 89.3097C542.26 87.9839 544.687 87.321 547.488 87.321C551.051 87.321 553.943 88.4562 556.164 90.7266C558.401 92.9803 559.519 96.1787 559.519 100.322V126H548.955V102.41C548.955 100.289 548.391 98.6977 547.264 97.6371C546.137 96.5765 544.729 96.0462 543.039 96.0462C541.116 96.0462 539.616 96.6593 538.539 97.8857C537.462 99.0954 536.923 100.695 536.923 102.683V126H526.657V102.186C526.657 100.313 526.119 98.822 525.041 97.7116C523.981 96.6013 522.58 96.0462 520.84 96.0462C519.664 96.0462 518.603 96.3445 517.659 96.9411C516.731 97.5211 515.993 98.3414 515.446 99.402C514.899 100.446 514.626 101.672 514.626 103.081V126H504.036ZM585.285 126.746C581.357 126.746 577.976 125.95 575.143 124.359C572.325 122.752 570.154 120.482 568.63 117.548C567.105 114.598 566.343 111.11 566.343 107.083C566.343 103.156 567.105 99.7086 568.63 96.7422C570.154 93.7758 572.3 91.464 575.068 89.8068C577.852 88.1496 581.117 87.321 584.862 87.321C587.381 87.321 589.726 87.727 591.897 88.5391C594.084 89.3345 595.99 90.536 597.614 92.1435C599.255 93.7509 600.531 95.7727 601.442 98.2088C602.354 100.628 602.809 103.462 602.809 106.71V109.619H570.569V103.056H592.841C592.841 101.531 592.51 100.181 591.847 99.0043C591.184 97.8277 590.265 96.9079 589.088 96.245C587.928 95.5656 586.577 95.2259 585.036 95.2259C583.429 95.2259 582.003 95.5987 580.76 96.3445C579.534 97.0736 578.573 98.0597 577.877 99.3026C577.181 100.529 576.825 101.896 576.808 103.404V109.643C576.808 111.533 577.156 113.165 577.852 114.54C578.565 115.916 579.567 116.977 580.86 117.722C582.153 118.468 583.685 118.841 585.459 118.841C586.635 118.841 587.712 118.675 588.69 118.344C589.668 118.012 590.505 117.515 591.201 116.852C591.897 116.189 592.427 115.377 592.792 114.416L602.586 115.062C602.089 117.416 601.069 119.471 599.528 121.227C598.004 122.967 596.032 124.326 593.612 125.304C591.209 126.265 588.433 126.746 585.285 126.746ZM620.309 75.0909V126H609.72V75.0909H620.309ZM628.792 126V87.8182H639.382V126H628.792ZM634.112 82.8963C632.538 82.8963 631.187 82.3743 630.06 81.3303C628.95 80.2696 628.395 79.0019 628.395 77.527C628.395 76.0687 628.95 74.8175 630.06 73.7734C631.187 72.7128 632.538 72.1825 634.112 72.1825C635.686 72.1825 637.029 72.7128 638.139 73.7734C639.266 74.8175 639.829 76.0687 639.829 77.527C639.829 79.0019 639.266 80.2696 638.139 81.3303C637.029 82.3743 635.686 82.8963 634.112 82.8963ZM658.454 103.926V126H647.865V87.8182H657.957V94.5547H658.404C659.249 92.334 660.666 90.5774 662.655 89.2848C664.644 87.9756 667.055 87.321 669.889 87.321C672.54 87.321 674.852 87.901 676.824 89.0611C678.796 90.2211 680.329 91.8783 681.423 94.0327C682.517 96.1705 683.063 98.7225 683.063 101.689V126H672.474V103.578C672.49 101.241 671.894 99.4186 670.684 98.1094C669.474 96.7836 667.809 96.1207 665.688 96.1207C664.262 96.1207 663.003 96.4273 661.909 97.0405C660.832 97.6536 659.987 98.5485 659.374 99.7251C658.777 100.885 658.471 102.286 658.454 103.926ZM708.81 126.746C704.882 126.746 701.502 125.95 698.668 124.359C695.851 122.752 693.68 120.482 692.155 117.548C690.631 114.598 689.868 111.11 689.868 107.083C689.868 103.156 690.631 99.7086 692.155 96.7422C693.68 93.7758 695.826 91.464 698.593 89.8068C701.377 88.1496 704.642 87.321 708.387 87.321C710.906 87.321 713.251 87.727 715.422 88.5391C717.61 89.3345 719.516 90.536 721.14 92.1435C722.78 93.7509 724.056 95.7727 724.968 98.2088C725.879 100.628 726.335 103.462 726.335 106.71V109.619H694.094V103.056H716.367C716.367 101.531 716.035 100.181 715.373 99.0043C714.71 97.8277 713.79 96.9079 712.613 96.245C711.453 95.5656 710.103 95.2259 708.561 95.2259C706.954 95.2259 705.529 95.5987 704.286 96.3445C703.06 97.0736 702.098 98.0597 701.402 99.3026C700.706 100.529 700.35 101.896 700.333 103.404V109.643C700.333 111.533 700.681 113.165 701.377 114.54C702.09 115.916 703.093 116.977 704.385 117.722C705.678 118.468 707.211 118.841 708.984 118.841C710.161 118.841 711.238 118.675 712.216 118.344C713.193 118.012 714.03 117.515 714.726 116.852C715.422 116.189 715.953 115.377 716.317 114.416L726.111 115.062C725.614 117.416 724.595 119.471 723.054 121.227C721.529 122.967 719.557 124.326 717.137 125.304C714.734 126.265 711.959 126.746 708.81 126.746Z" fill="#E9FFE9"/>
<ellipse cx="211.273" cy="101.249" rx="25.898" ry="26.7878" fill="#63B1C1"/>
<ellipse cx="344.852" cy="101.249" rx="25.898" ry="26.7878" fill="#63B1C0"/>
<ellipse cx="829.191" cy="101.249" rx="25.898" ry="26.7878" fill="#63B1C0"/>
<ellipse cx="966.405" cy="101.249" rx="25.898" ry="26.7878" fill="#63B0C0"/>
<ellipse cx="1103.62" cy="101.249" rx="25.898" ry="26.7878" fill="#63B1C1"/>
<ellipse cx="74.9678" cy="101.249" rx="25.898" ry="26.7878" fill="#58A8BA"/>
<rect x="814.197" width="29.0785" height="100.795" rx="14.5392" fill="#E9FFE9"/>
<rect x="196.28" width="29.0785" height="100.795" rx="14.5392" fill="#E9FFE9"/>
<rect x="59.9744" width="29.0785" height="100.795" rx="14.5392" fill="#E9FFE9"/>
<rect x="951.411" width="29.0785" height="100.795" rx="14.5392" fill="#E9FFE9"/>
<rect x="1088.63" width="29.0785" height="100.795" rx="14.5392" fill="#E9FFE9"/>
<rect x="329.859" width="29.0785" height="100.795" rx="14.5392" fill="#E9FFE9"/>
</svg>
