<svg width="250" height="189" viewBox="0 0 250 189" fill="none" xmlns="http://www.w3.org/2000/svg">
<g filter="url(#filter0_d_519_266)">
<path d="M228.772 180.319C231.186 179.985 238.776 180.18 242.27 180.319L205.587 72.5937C200.861 74.4716 197.566 73.6215 193.121 74.0516C193.239 74.4374 193.358 74.8273 193.479 75.2212C199.958 96.3756 210.216 129.173 218.044 152.499C218.683 154.404 219.306 156.246 219.91 158.013C222.125 164.5 224.076 169.981 225.596 173.886C227.161 177.908 228.269 180.259 228.736 180.319H228.772Z" fill="#434141"/>
<path d="M151.515 78.2288C148.339 80.4009 148.736 84.4946 153.579 84.4946H188.119C189.151 84.4946 201.299 117.244 201.299 118.915C201.299 120.251 209.239 141.861 213.209 152.499H218.044C210.216 129.173 199.958 96.3756 193.479 75.2212L151.515 78.2288Z" fill="#434141"/>
<path d="M161.678 66.2821C158.793 65.3909 152.722 64.6112 151.515 68.6213C150.006 73.6339 148.18 76.3908 158.423 75.2212C168.665 74.0516 186.213 74.72 193.121 74.0516C197.566 73.6215 200.861 74.4716 205.587 72.5937C208.204 71.5537 211.26 69.6768 215.194 66.2821C226.231 56.7581 239.65 45.5632 243.54 39.2139C245.52 35.984 245.446 24.8444 240.92 29.1887C224.234 45.2052 202.411 63.8593 201.299 64.277C201.029 64.3786 198.45 64.5547 194.629 64.7655C185.878 65.2485 170.614 65.9137 161.678 66.2821Z" fill="#434141"/>
<path d="M201.299 64.277C202.411 63.8593 224.234 45.2052 240.92 29.1887C236.977 28.5203 226.31 30.1411 215.194 41.9709C201.299 56.7581 196.138 60.9098 194.629 64.7655C198.45 64.5547 201.029 64.3786 201.299 64.277Z" fill="#1E1E1E"/>
<path d="M219.91 158.013C217.623 158.041 212.241 158.882 209.001 162.023C207.304 162.748 203.096 170.532 202.03 171.506C198.554 174.682 200.957 171.845 201.299 173.886H225.596C224.076 169.981 222.125 164.5 219.91 158.013Z" fill="#1E1E1E"/>
<path d="M218.044 152.499H213.209L198.758 158.013C205.682 158.013 208.472 160.686 209.001 162.023C212.241 158.882 217.623 158.041 219.91 158.013C219.306 156.246 218.683 154.404 218.044 152.499Z" fill="#1E1E1E"/>
<path d="M27.6494 180.319L34.7161 173.886V164.613H27.6494V180.319Z" fill="#434141"/>
<path d="M225.596 173.886H201.299H34.7161L27.6494 180.319H228.736C228.269 180.259 227.161 177.908 225.596 173.886Z" fill="#434141"/>
<path d="M27.6494 164.613H34.7161L37.2848 163.221L33.9221 163.193H30.5078L27.6494 164.613Z" fill="#1E1E1E"/>
<path d="M43.7678 158.376H46.7056L49.0082 156.77H46.1498L43.7678 158.376Z" fill="#1E1E1E"/>
<path d="M34.7161 173.886H201.299C200.957 171.845 198.554 174.682 202.03 171.506L37.3363 170.137L37.2848 163.221L34.7161 164.613V173.886Z" fill="#434141"/>
<path d="M209.001 162.023C208.472 160.686 205.682 158.013 198.758 158.013L49.0082 158.859L47.976 159.444L43.7678 161.95C42.2658 162.767 38.395 169.544 37.3363 170.137L202.03 171.506C203.096 170.532 207.304 162.748 209.001 162.023Z" fill="#1E1E1E"/>
<path fill-rule="evenodd" clip-rule="evenodd" d="M43.7678 161.95C45.2698 161.133 46.7056 160.2 46.7056 160.2L43.7678 161.95Z" fill="#1E1E1E"/>
<path d="M43.7678 158.376V161.95L46.7056 160.2V158.376H43.7678Z" fill="#434141"/>
<path d="M46.7056 158.376V160.2L47.976 159.444L49.0082 158.859V156.77L46.7056 158.376Z" fill="#434141"/>
<path d="M193.121 74.0516C186.213 74.72 168.665 74.0516 158.423 75.2212C148.18 76.3908 150.006 73.6339 151.515 68.6213C152.722 64.6112 158.793 65.3909 161.678 66.2821C170.614 65.9137 185.878 65.2485 194.629 64.7655M193.121 74.0516C197.566 73.6215 200.861 74.4716 205.587 72.5937M193.121 74.0516C193.239 74.4374 193.358 74.8273 193.479 75.2212M240.92 29.1887C224.234 45.2052 202.411 63.8593 201.299 64.277C201.029 64.3786 198.45 64.5547 194.629 64.7655M240.92 29.1887C245.446 24.8444 245.519 35.984 243.54 39.2139C239.65 45.5632 226.231 56.7581 215.194 66.2821C211.26 69.6768 208.204 71.5537 205.587 72.5937M240.92 29.1887C236.977 28.5203 226.31 30.1411 215.194 41.9709C201.299 56.7581 196.138 60.9098 194.629 64.7655M228.772 180.319C231.186 179.985 238.776 180.18 242.27 180.319L205.587 72.5937M228.772 180.319H228.736M228.772 180.319C228.76 180.321 228.749 180.321 228.736 180.319M153.579 84.4946C148.736 84.4946 148.339 80.4009 151.515 78.2288L193.479 75.2212M153.579 84.4946C158.423 84.4946 187.086 84.4946 188.119 84.4946M153.579 84.4946H188.119M188.119 84.4946C189.151 84.4946 201.299 117.244 201.299 118.915C201.299 120.251 209.239 141.861 213.209 152.499M213.209 152.499H218.044M213.209 152.499L198.758 158.013M218.044 152.499C210.216 129.173 199.958 96.3756 193.479 75.2212M218.044 152.499C218.683 154.404 219.306 156.246 219.91 158.013M198.758 158.013C205.682 158.013 208.472 160.686 209.001 162.023M198.758 158.013L49.0082 158.859M209.001 162.023C212.241 158.882 217.623 158.041 219.91 158.013M209.001 162.023C207.304 162.748 203.096 170.532 202.03 171.506M219.91 158.013C222.125 164.5 224.076 169.981 225.596 173.886M201.299 173.886H225.596M201.299 173.886H34.7161M201.299 173.886C200.957 171.845 198.554 174.682 202.03 171.506M225.596 173.886C227.161 177.908 228.269 180.259 228.736 180.319M34.7161 173.886V164.613M34.7161 173.886L27.6494 180.319M27.6494 180.319V164.613M27.6494 180.319H228.736M27.6494 164.613H34.7161M27.6494 164.613L30.5078 163.193H33.9221M34.7161 164.613L37.2848 163.221M33.9221 163.193H37.3363L37.2848 163.221M33.9221 163.193L37.2848 163.221M202.03 171.506L37.3363 170.137M37.3363 170.137C38.395 169.544 42.2658 162.767 43.7678 161.95M37.3363 170.137L37.2848 163.221M46.7056 160.2C46.7056 160.2 45.2698 161.133 43.7678 161.95M46.7056 160.2V158.376M46.7056 160.2L47.976 159.444M46.7056 160.2L43.7678 161.95M43.7678 161.95V158.376M43.7678 161.95L47.976 159.444M43.7678 158.376H46.7056M43.7678 158.376L46.1498 156.77H49.0082M46.7056 158.376L49.0082 156.77M49.0082 156.77V158.859M49.0082 158.859L47.976 159.444" stroke="black"/>
<path d="M129.991 62.9953C124.826 62.9953 118.184 61.3243 112.78 58.0658C111.233 57.1325 107.602 54.296 107.059 52.802C106.844 54.3941 106.806 53.5172 106.602 55.7733C106.601 55.7929 106.599 55.8124 106.597 55.832C106.211 60.1264 105.943 65.167 106.156 69.2617C110.059 68.7604 119.391 69.6126 125.494 77.032C133.122 86.3062 135.665 84.7188 135.665 84.7188C135.665 84.7188 140.353 86.3062 140.353 80.5412C136.221 78.0012 131.315 67.4514 129.991 62.9953Z" fill="#E9FFE9"/>
<path d="M84.7359 109.69C88.1262 107.629 93.4371 101.513 94.6631 106.776C94.5803 106.421 94.5279 106.029 94.5064 105.607C94.2581 100.722 98.1551 91.8155 107.059 89.0617C107.567 90.8092 107.698 91.4639 107.706 92.1549C110.555 94.2437 112.462 96.1654 118.184 95.0792C127.57 93.2973 123.888 84.4403 121.124 78.703C115.72 69.2617 108.966 75.5281 107.257 75.5281C107.649 76.4019 88.6566 78.8618 85.3512 104.019C85.1801 105.322 84.818 108.263 84.7359 109.69Z" fill="#E9FFE9"/>
<path d="M141.307 109.032C127.547 93.84 103.483 98.2542 107.615 95.0792C105.301 95.749 110.873 103.267 102.53 102.935C100.791 104.812 93.5755 113.904 92.2688 116.959C92.2565 117.005 92.2961 116.908 92.2688 116.959C91.7921 118.197 91.3982 117.694 91.1107 119.132C90.8592 120.389 91.276 125.161 91.3437 126.578C91.4682 129.187 92.5618 131.462 94.5064 133.347C98.3583 137.081 105.549 139.286 115.164 139.527C119.973 139.647 125.388 139.276 131.295 138.359C138.605 155.403 142.435 153.148 142.976 156.406C143.155 157.487 143.564 157.444 144.009 158.578C151.001 157.409 149.534 152.312 151.081 151.894C149.378 149.408 149.332 150.39 146.313 138.359C143.293 126.327 141.731 127.386 137.175 122.735C138.517 120.283 141.89 112.792 141.307 109.032Z" fill="#E9FFE9"/>
<path d="M94.5064 133.347C95.2208 136.41 89.8665 148.814 79.8833 151.226C79.0655 151.423 78.3578 151.53 77.7378 151.571C79.1152 154.798 81.0434 160.467 77.7378 164.678C77.7378 164.678 78.8503 163.508 79.8833 163.508C80.9163 163.508 87.5116 159.999 93.3917 157.409C101.767 153.719 106.264 149.388 106.264 149.388C106.264 149.388 114.767 143.87 115.164 139.527C105.549 139.286 98.3583 137.081 94.5064 133.347Z" fill="#E9FFE9"/>
<path d="M157.914 151.894C155.285 150.709 152.511 153.983 151.081 151.894C149.534 152.312 151.001 157.409 144.009 158.578C144.903 160.863 146.229 164.093 148.141 164.093C151.001 164.093 156.563 162.422 160.854 159.832C164.047 157.905 159.583 152.646 157.914 151.894Z" fill="#B0BFB0"/>
<path d="M71.0631 151.226C68.9971 152.643 69.6328 157.409 69.6328 157.409L68.6792 164.678C68.6792 164.678 65.7392 172.615 73.6058 167.602C75.2368 166.563 77.7378 164.678 77.7378 164.678C81.0434 160.467 79.1152 154.798 77.7378 151.571C73.9001 151.828 73.4282 149.604 71.0631 151.226Z" fill="#B0BFB0"/>
<path d="M84.7359 109.69C85.2921 113.617 84.1796 118.793 88.2321 116.959C88.7137 116.741 89.1043 116.675 89.5239 116.47C94.5738 113.993 95.5435 110.556 94.6631 106.776C93.4371 101.513 88.1262 107.629 84.7359 109.69Z" fill="#B0BFB0"/>
<path d="M164.441 74.8597C160.23 75.4445 158.868 74.5255 158.868 77.032C160.678 80.3189 164.831 87.5394 167.072 83.4854C167.091 83.4517 167.109 83.4172 167.128 83.3819C167.54 82.5976 167.877 81.5738 168.085 79.9563C168.459 77.0585 166.182 74.6179 164.441 74.8597Z" fill="#B0BFB0"/>
<path d="M158.868 77.032C158.868 86.0556 146.717 84.7188 140.353 80.5412C141.833 83.0089 142.69 87.8446 143.067 93.1575C143.532 92.5726 147.266 98.0035 157.12 94.2437C155.292 94.6614 161.674 92.1549 164.112 88.228C165.104 85.647 166.234 85.015 167.072 83.4854C164.831 87.5394 160.678 80.3189 158.868 77.032Z" fill="#E9FFE9"/>
<path d="M126.448 36.6766C126.448 37.5121 131.147 38.7654 131.147 38.7654C131.147 38.7654 134.155 35.4455 130.5 34.7564C130.339 34.7955 130.168 34.8272 129.991 34.851C129.48 34.9751 128.952 35.1856 128.434 35.4455C127.603 35.8629 127.115 36.1572 126.448 36.6766Z" fill="#1E1E1E"/>
<path d="M123.666 34.0029C123.666 36.4106 124.485 36.4783 125.589 36.5697C125.861 36.5922 126.15 36.6161 126.448 36.6766C127.115 36.1572 127.603 35.8629 128.434 35.4455C124.623 37.0662 123.858 33.0386 123.705 33.0641C123.666 33.0706 123.666 33.3323 123.666 34.0029Z" fill="black"/>
<path d="M126.209 32.9167C125.865 33.6241 125.383 35.7217 128.434 35.4455C128.952 35.1856 129.48 34.9751 129.991 34.851C128.239 35.0864 125.848 34.5637 126.209 32.9167Z" fill="black"/>
<path d="M150.922 56.1441C150.457 57.0242 150.016 57.4083 149.717 57.6686C149.25 58.0755 149.131 58.1797 149.809 59.4026C150.922 61.4078 151.716 59.4026 150.922 56.1441Z" fill="black"/>
<path d="M120.965 21.4702C122.822 29.3385 128.171 25.771 132.03 23.1968C133.786 22.0262 135.233 21.061 135.903 21.4702C136.019 21.8537 138.186 20.2169 138.186 20.2169C138.186 20.2169 126.552 -1.00712 107.257 11.6111C102.53 14.7025 98.3183 17.961 98.3183 17.961C88.5446 23.726 70.0152 34.4207 72.7169 20.5511C73.591 17.3483 78.5295 13.8652 76.6105 24.8958C75.4186 31.747 85.5896 12.6972 78.2792 11.6111C76.6105 8.35254 67.7108 12.6972 66.6778 17.961C63.8172 24.4223 63.5471 38.0969 85.3512 41.1048C88.5961 42.3734 86.64 41.4792 91.3437 41.1048C95.8175 40.7487 105.575 40.6387 108.868 36.4389C109.147 35.8653 109.442 35.3035 109.75 34.7564C111.579 31.5019 113.838 28.7666 115.561 27.1517C109.332 23.2749 112.621 15.4823 114.052 12.5301C116.556 4.71176 119.241 14.9167 120.89 21.1866L120.965 21.4702Z" fill="#1A535C"/>
<path d="M106.602 55.7733C106.806 53.5172 106.844 54.3941 107.059 52.802C105.475 48.441 106.818 40.6581 108.868 36.4389C105.575 40.6387 95.8175 40.7487 91.3437 41.1048C79.1681 46.5357 68.9765 51.2981 70.3479 44.5304C74.9499 21.8204 45.0792 34.7564 59.1439 46.5357C58.1903 41.1048 61.9122 33.7291 64.0705 41.1048C65.6597 46.5357 54.5351 51.0474 55.0914 56.1441C55.1514 59.9075 57.7268 63.3042 62.4018 64.7605C65.974 65.8733 70.772 65.8531 76.6105 63.9979C91.0724 59.4026 104.054 68.9496 106.597 55.832C106.599 55.8124 106.601 55.7929 106.602 55.7733Z" fill="#4ECDC4"/>
<path d="M106.597 55.832C104.054 68.9496 91.0724 59.4026 76.6105 63.9979C70.772 65.8531 65.974 65.8733 62.4018 64.7605C53.1843 62.9467 39.3987 59.7401 48.5755 71.3505C58.3493 83.7161 48.8934 71.2669 53.2637 68.2591C55.833 67.0894 60.606 66.4544 59.1439 73.2722C57.3163 81.7944 76.6105 88.228 78.2792 75.5281C80.1368 61.3905 101.945 77.7734 106.156 69.2617C105.943 65.167 106.211 60.1264 106.597 55.832Z" fill="#1A535C"/>
<path d="M59.7001 118.056C60.9475 110.475 63.4956 105.429 67.1695 102.935C59.0379 101.709 43.5695 104.086 46.7479 123.403C50.721 147.55 35.9412 134.683 42.2186 132.51C48.4961 130.338 36.1001 131.978 37.5304 135.936C38.6596 139.06 39.8878 139.931 41.176 140.008C41.5228 139.996 41.8706 139.969 42.2186 139.928C49.4158 139.079 57.3097 132.584 59.7001 118.056Z" fill="#4ECDC4"/>
<path d="M94.6631 106.776C95.5435 110.556 94.5738 113.993 89.5239 116.47C90.5651 116.301 92.4795 116.182 92.2688 116.959C93.5755 113.904 100.791 104.812 102.53 102.935C104.189 101.599 96.0365 105.885 94.5064 105.607C94.5279 106.029 94.5803 106.421 94.6631 106.776Z" fill="#1A535C"/>
<path d="M88.2321 116.959C84.1796 118.793 85.2921 113.617 84.7359 109.69C71.7739 102.381 67.4192 124.145 66.9365 129.325C64.5729 135.174 79.6503 139.936 81.8753 129.241C63.5992 137.513 80.6833 110.442 91.1107 119.132C91.3982 117.694 91.7921 118.197 92.2688 116.959C92.4795 116.182 90.5651 116.301 89.5239 116.47C89.1043 116.675 88.7137 116.741 88.2321 116.959Z" fill="#4ECDC4"/>
<path d="M84.7359 109.69C84.818 108.263 85.1801 105.322 85.3512 104.019C82.9367 100.787 74.0533 98.2623 67.1695 102.935C63.4956 105.429 60.9475 110.475 59.7001 118.056C57.3097 132.584 49.4158 139.079 42.2186 139.928C41.8673 139.993 41.5195 140.029 41.176 140.008C36.7744 140.166 32.5184 138.034 29.5843 133.931C20.0489 122.484 26.9621 113.962 29.5843 111.038C32.2065 108.113 35.8617 108.113 31.4914 115.382C30.4723 117.077 49.688 102.014 37.5304 96.6667C33.1336 93.993 21.7812 92.9904 13.7715 102.348C7.89138 108.615 -0.785793 124.991 11.5466 140.364C26.9621 159.581 29.5233 153.762 46.0476 151.52C65.754 148.847 72.3548 104.22 84.7359 109.69Z" fill="#1A535C"/>
<path fill-rule="evenodd" clip-rule="evenodd" d="M129.991 62.9953C124.826 62.9953 118.184 61.3243 112.78 58.0658C111.233 57.1325 107.602 54.296 107.059 52.802C105.475 48.441 106.818 40.6581 108.868 36.4389C109.26 35.9385 109.561 35.3802 109.75 34.7564C111.579 31.5019 113.838 28.7666 115.561 27.1517C109.332 23.2749 112.621 15.4823 114.052 12.5301C116.556 4.71176 119.241 14.9167 120.89 21.1866L120.965 21.4702C122.822 29.3385 128.171 25.771 132.03 23.1968C133.786 22.0262 135.233 21.061 135.903 21.4702C136.019 21.8537 138.186 20.2169 138.186 20.2169C138.186 20.2169 143.532 15.2617 146.91 11.9439C151.62 7.31638 156.56 2.46329 158.868 1C158.868 4.77935 152.862 12.5709 147.969 18.9187C145.29 22.3943 142.945 25.4371 142.101 27.1517C142.101 27.1517 143.008 28.1132 141.307 36.4389C141.24 36.7664 141.167 37.0943 141.094 37.422C140.129 41.763 139.175 46.0549 152.273 48.5409C157.12 48.5409 155.721 65.3348 149.809 65.3348C149.809 67.0058 147.108 69.4288 141.307 67.5907C137.1 65.0368 136.339 63.9017 135.301 63.3976C134.438 62.9781 133.383 62.9953 129.991 62.9953ZM126.448 36.6766C126.448 37.5121 131.147 38.7654 131.147 38.7654C131.147 38.7654 134.155 35.4455 130.5 34.7564C130.333 34.7772 130.163 34.8092 129.991 34.851C128.239 35.0864 125.848 34.5637 126.209 32.9167C125.865 33.6241 125.383 35.7217 128.434 35.4455C124.623 37.0662 123.858 33.0386 123.705 33.0641C123.666 33.0706 123.666 33.3323 123.666 34.0029C123.666 36.4106 124.485 36.4783 125.589 36.5697C125.861 36.5922 126.15 36.6161 126.448 36.6766ZM149.717 57.6686C150.016 57.4083 150.457 57.0242 150.922 56.1441C151.716 59.4026 150.922 61.4078 149.809 59.4026C149.131 58.1797 149.25 58.0755 149.717 57.6686ZM117.003 22.8905C116.042 22.5563 114.408 21.1025 115.561 17.961C117.003 14.0341 117.003 19.2978 117.003 22.8905Z" fill="#E9FFE9"/>
<path d="M117.003 22.8905C116.042 22.5563 114.408 21.1025 115.561 17.961C117.003 14.0341 117.003 19.2978 117.003 22.8905Z" fill="black"/>
<path d="M107.615 95.0792C103.483 98.2542 127.547 93.84 141.307 109.032C143.465 111.415 143.864 104.394 143.067 93.1575C142.69 87.8446 141.833 83.0089 140.353 80.5412C140.353 86.3062 135.665 84.7188 135.665 84.7188C135.665 84.7188 133.122 86.3062 125.494 77.032C119.391 69.6126 110.059 68.7604 106.156 69.2617C106.234 70.7507 106.375 72.1147 106.597 73.2722C106.767 74.1568 106.984 74.9209 107.257 75.5281C108.966 75.5281 115.72 69.2617 121.124 78.703C123.888 84.4403 127.57 93.2973 118.184 95.0792C112.462 96.1654 110.555 94.2437 107.706 92.1549C107.713 92.7967 107.615 93.4699 107.615 95.0792Z" fill="#9F1919"/>
<path d="M129.991 62.9953C124.826 62.9953 118.184 61.3243 112.78 58.0658C111.233 57.1325 107.602 54.296 107.059 52.802M129.991 62.9953C131.315 67.4514 136.221 78.0012 140.353 80.5412M129.991 62.9953C133.383 62.9953 134.438 62.9781 135.301 63.3976C136.339 63.9017 137.1 65.0368 141.307 67.5907C147.108 69.4288 149.809 67.0058 149.809 65.3348M149.809 65.3348C145.916 65.3348 139.935 61.0736 138.186 59.4026M149.809 65.3348C155.721 65.3348 157.12 48.5409 152.273 48.5409C139.175 46.0549 140.129 41.763 141.094 37.422C141.167 37.0943 141.24 36.7664 141.307 36.4389C143.008 28.1132 142.101 27.1517 142.101 27.1517M142.101 27.1517C142.945 25.4371 145.29 22.3943 147.969 18.9187C152.862 12.5709 158.868 4.77935 158.868 1C156.56 2.46329 151.62 7.31638 146.91 11.9439C143.532 15.2617 138.186 20.2169 138.186 20.2169M142.101 27.1517C133.964 24.7454 136.101 21.5259 138.186 20.2169M120.965 21.4702L120.89 21.1866M120.965 21.4702C120.94 21.3766 120.915 21.282 120.89 21.1866M120.965 21.4702C122.822 29.3385 128.171 25.771 132.03 23.1968C133.786 22.0262 135.233 21.061 135.903 21.4702C136.019 21.8537 138.186 20.2169 138.186 20.2169M126.448 36.6766C126.448 37.5121 131.147 38.7654 131.147 38.7654C131.147 38.7654 134.155 35.4455 130.5 34.7564M126.448 36.6766C127.115 36.1572 127.603 35.8629 128.434 35.4455M126.448 36.6766C126.15 36.6161 125.861 36.5922 125.589 36.5697C124.485 36.4783 123.666 36.4106 123.666 34.0029C123.666 33.3323 123.666 33.0706 123.705 33.0641C123.858 33.0386 124.623 37.0662 128.434 35.4455M128.434 35.4455C125.383 35.7217 125.865 33.6241 126.209 32.9167C125.848 34.5637 128.239 35.0864 129.991 34.851M128.434 35.4455C128.952 35.1856 129.48 34.9751 129.991 34.851M130.5 34.7564C130.333 34.7772 130.163 34.8092 129.991 34.851M130.5 34.7564C130.339 34.7955 130.168 34.8272 129.991 34.851M107.059 52.802C105.475 48.441 106.818 40.6581 108.868 36.4389M107.059 52.802C106.844 54.3941 106.806 53.5172 106.602 55.7733M107.257 75.5281C107.649 76.4019 88.6566 78.8618 85.3512 104.019M107.257 75.5281C106.984 74.9209 106.767 74.1568 106.597 73.2722C106.375 72.1147 106.234 70.7507 106.156 69.2617M107.257 75.5281C108.966 75.5281 115.72 69.2617 121.124 78.703C123.888 84.4403 127.57 93.2973 118.184 95.0792C112.462 96.1654 110.555 94.2437 107.706 92.1549M84.7359 109.69C85.2921 113.617 84.1796 118.793 88.2321 116.959C88.7137 116.741 89.1043 116.675 89.5239 116.47M84.7359 109.69C88.1262 107.629 93.4371 101.513 94.6631 106.776M84.7359 109.69C84.818 108.263 85.1801 105.322 85.3512 104.019M84.7359 109.69C72.3548 104.22 65.754 148.847 46.0476 151.52C29.5233 153.762 26.9621 159.581 11.5466 140.364C-0.785793 124.991 7.89138 108.615 13.7715 102.348C21.7812 92.9904 33.1336 93.993 37.5304 96.6667C49.688 102.014 30.4723 117.077 31.4914 115.382C35.8617 108.113 32.2065 108.113 29.5843 111.038C26.9621 113.962 20.0489 122.484 29.5843 133.931C32.5184 138.034 36.7744 140.166 41.176 140.008M84.7359 109.69C71.7739 102.381 67.4192 124.145 66.9365 129.325C64.5729 135.174 79.6503 139.936 81.8753 129.241C63.5992 137.513 80.6833 110.442 91.1107 119.132M94.6631 106.776C95.5435 110.556 94.5738 113.993 89.5239 116.47M94.6631 106.776C94.5803 106.421 94.5279 106.029 94.5064 105.607M112.78 88.228C110.682 88.228 108.778 88.5303 107.059 89.0617M107.059 89.0617C98.1551 91.8155 94.2581 100.722 94.5064 105.607M107.059 89.0617C107.567 90.8092 107.698 91.4639 107.706 92.1549M107.615 95.0792C103.483 98.2542 127.547 93.84 141.307 109.032M107.615 95.0792C105.301 95.749 110.873 103.267 102.53 102.935M107.615 95.0792C107.615 93.4699 107.713 92.7967 107.706 92.1549M141.307 109.032C143.465 111.415 143.864 104.394 143.067 93.1575M141.307 109.032C141.89 112.792 138.517 120.283 137.175 122.735M140.353 80.5412C146.717 84.7188 158.868 86.0556 158.868 77.032M140.353 80.5412C141.833 83.0089 142.69 87.8446 143.067 93.1575M140.353 80.5412C140.353 86.3062 135.665 84.7188 135.665 84.7188C135.665 84.7188 133.122 86.3062 125.494 77.032C119.391 69.6126 110.059 68.7604 106.156 69.2617M158.868 77.032C158.868 74.5255 160.23 75.4445 164.441 74.8597C166.182 74.6179 168.459 77.0585 168.085 79.9563C167.877 81.5738 167.54 82.5976 167.128 83.3819C167.109 83.4172 167.091 83.4517 167.072 83.4854M158.868 77.032C160.678 80.3189 164.831 87.5394 167.072 83.4854M143.067 93.1575C143.532 92.5726 147.266 98.0035 157.12 94.2437C155.292 94.6614 161.674 92.1549 164.112 88.228C165.104 85.647 166.234 85.015 167.072 83.4854M85.3512 104.019C82.9367 100.787 74.0533 98.2623 67.1695 102.935M67.1695 102.935C63.4956 105.429 60.9475 110.475 59.7001 118.056C57.3097 132.584 49.4158 139.079 42.2186 139.928M67.1695 102.935C59.0379 101.709 43.5695 104.086 46.7479 123.403C50.721 147.55 35.9412 134.683 42.2186 132.51C48.4961 130.338 36.1001 131.978 37.5304 135.936C38.6596 139.06 39.8878 139.931 41.176 140.008M42.2186 139.928C41.8706 139.969 41.5228 139.996 41.176 140.008M42.2186 139.928C41.8673 139.993 41.5195 140.029 41.176 140.008M89.5239 116.47C90.5651 116.301 92.4795 116.182 92.2688 116.959M92.2688 116.959C91.7921 118.197 91.3982 117.694 91.1107 119.132M92.2688 116.959C93.5755 113.904 100.791 104.812 102.53 102.935M92.2688 116.959C92.2565 117.005 92.2961 116.908 92.2688 116.959ZM92.2688 116.959C92.2476 117.009 92.287 116.912 92.2688 116.959ZM94.5064 105.607C96.0365 105.885 104.189 101.599 102.53 102.935M91.1107 119.132C90.8592 120.389 91.276 125.161 91.3437 126.578C91.4682 129.187 92.5618 131.462 94.5064 133.347M106.156 69.2617C101.945 77.7734 80.1368 61.3905 78.2792 75.5281C76.6105 88.228 57.3163 81.7945 59.1439 73.2722C60.606 66.4544 55.833 67.0894 53.2637 68.2591C48.8934 71.2669 58.3493 83.7161 48.5755 71.3505C39.3987 59.7401 53.1843 62.9467 62.4018 64.7605M106.156 69.2617C105.943 65.167 106.211 60.1264 106.597 55.832M106.156 69.2617C105.942 65.1483 106.214 60.0804 106.602 55.7733M137.175 122.735C135.665 125.492 138.287 117.037 123.984 114.748M137.175 122.735C141.731 127.386 143.293 126.327 146.313 138.359C149.332 150.39 149.378 149.408 151.081 151.894M151.081 151.894C152.511 153.983 155.285 150.709 157.914 151.894C159.583 152.646 164.047 157.905 160.854 159.832C156.563 162.422 151.001 164.093 148.141 164.093C146.229 164.093 144.903 160.863 144.009 158.578M151.081 151.894C149.534 152.312 151.001 157.409 144.009 158.578M94.5064 133.347C95.2208 136.41 89.8665 148.814 79.8833 151.226C79.0655 151.423 78.3578 151.53 77.7378 151.571M94.5064 133.347C98.3583 137.081 105.549 139.286 115.164 139.527M77.7378 164.678C77.7378 164.678 75.2368 166.563 73.6058 167.602C65.7392 172.615 68.6792 164.678 68.6792 164.678L69.6328 157.409C69.6328 157.409 68.9971 152.643 71.0631 151.226C73.4282 149.604 73.9001 151.828 77.7378 151.571M77.7378 164.678C77.7378 164.678 78.8503 163.508 79.8833 163.508C80.9163 163.508 87.5116 159.999 93.3917 157.409C101.767 153.719 106.264 149.388 106.264 149.388C106.264 149.388 114.767 143.87 115.164 139.527M77.7378 164.678C81.0434 160.467 79.1152 154.798 77.7378 151.571M115.164 139.527C119.973 139.647 125.388 139.276 131.295 138.359C138.605 155.403 142.435 153.148 142.976 156.406C143.155 157.487 143.564 157.444 144.009 158.578M138.186 20.2169C138.186 20.2169 126.552 -1.00712 107.257 11.6111C102.53 14.7025 98.3183 17.961 98.3183 17.961C88.5446 23.726 70.0152 34.4207 72.7169 20.5511C73.591 17.3483 78.5295 13.8652 76.6105 24.8958C75.4186 31.747 85.5896 12.6972 78.2792 11.6111C76.6105 8.35254 67.7108 12.6972 66.6778 17.961C63.8172 24.4223 63.5471 38.0969 85.3512 41.1048C88.5961 42.3734 86.64 41.4792 91.3437 41.1048M109.75 34.7564C111.579 31.5019 113.838 28.7666 115.561 27.1517C109.332 23.2749 112.621 15.4823 114.052 12.5301C116.556 4.71176 119.241 14.9167 120.89 21.1866M109.75 34.7564C109.561 35.3802 109.26 35.9385 108.868 36.4389M109.75 34.7564C109.442 35.3035 109.147 35.8653 108.868 36.4389M91.3437 41.1048C79.1681 46.5357 68.9765 51.2981 70.3479 44.5304C74.9499 21.8204 45.0792 34.7564 59.1439 46.5357C58.1903 41.1048 61.9122 33.7291 64.0705 41.1048C65.6597 46.5357 54.5351 51.0474 55.0914 56.1441C55.1514 59.9075 57.7268 63.3042 62.4018 64.7605M91.3437 41.1048C95.8175 40.7487 105.575 40.6387 108.868 36.4389M106.597 55.832C104.054 68.9496 91.0724 59.4026 76.6105 63.9979C70.772 65.8531 65.974 65.8733 62.4018 64.7605M106.597 55.832C106.599 55.8124 106.601 55.7929 106.602 55.7733M150.922 56.1441C151.716 59.4026 150.922 61.4078 149.809 59.4026C149.131 58.1797 149.25 58.0755 149.717 57.6686C150.016 57.4083 150.457 57.0242 150.922 56.1441ZM117.003 22.8905C116.042 22.5563 114.408 21.1025 115.561 17.961C117.003 14.0341 117.003 19.2978 117.003 22.8905Z" stroke="black" stroke-opacity="0.2"/>
</g>
<defs>
<filter id="filter0_d_519_266" x="0.780273" y="0.0908203" width="248.497" height="188.757" filterUnits="userSpaceOnUse" color-interpolation-filters="sRGB">
<feFlood flood-opacity="0" result="BackgroundImageFix"/>
<feColorMatrix in="SourceAlpha" type="matrix" values="0 0 0 0 0 0 0 0 0 0 0 0 0 0 0 0 0 0 127 0" result="hardAlpha"/>
<feOffset dy="4"/>
<feGaussianBlur stdDeviation="2"/>
<feComposite in2="hardAlpha" operator="out"/>
<feColorMatrix type="matrix" values="0 0 0 0 0 0 0 0 0 0 0 0 0 0 0 0 0 0 0.25 0"/>
<feBlend mode="normal" in2="BackgroundImageFix" result="effect1_dropShadow_519_266"/>
<feBlend mode="normal" in="SourceGraphic" in2="effect1_dropShadow_519_266" result="shape"/>
</filter>
</defs>
</svg>
